<?xml version="1.0" encoding="UTF-8"?>
<svg width="1200pt" height="1200pt" version="1.1" viewBox="0 0 1200 1200" xmlns="http://www.w3.org/2000/svg">
 <path d="m120 744c0 19.883 16.117 36 36 36h48c19.883 0 36-16.117 36-36v-300c0-19.883-16.117-36-36-36h-48c-19.883 0-36 16.117-36 36z"/>
 <path d="m960 744c0 19.883 16.117 36 36 36h48c19.883 0 36-16.117 36-36v-300c0-19.883-16.117-36-36-36h-48c-19.883 0-36 16.117-36 36z"/>
 <path d="m252 840c0 19.883 16.117 36 36 36h48c19.883 0 36-16.117 36-36v-480c0-19.883-16.117-36-36-36h-48c-19.883 0-36 16.117-36 36z"/>
 <path d="m828 840c0 19.883 16.117 36 36 36h48c19.883 0 36-16.117 36-36v-480c0-19.883-16.117-36-36-36h-48c-19.883 0-36 16.117-36 36z"/>
 <path d="m384 540h432v120h-432z"/>
 <path d="m120 540h120v120h-120z"/>
 <path d="m252 540h120v120h-120z"/>
 <path d="m960 540h120v120h-120z"/>
 <path d="m1164 540h-72v120h72c19.883 0 36-16.117 36-36v-48c0-19.883-16.117-36-36-36z"/>
 <path d="m828 540h120v120h-120z"/>
 <path d="m108 540h-72c-19.883 0-36 16.117-36 36v48c0 19.883 16.117 36 36 36h72z"/>
</svg>
